<svg width="15" height="15" viewBox="0 0 15 15" fill="none" xmlns="http://www.w3.org/2000/svg">
<path d="M3.00395 9.46568C3.00395 10.0669 2.58505 10.5591 2.07327 10.5591C1.56149 10.5591 1.14209 10.0674 1.14209 9.46568V5.88713C1.14209 5.2859 1.561 4.79367 2.07327 4.79367C2.58553 4.79367 3.00395 5.2859 3.00395 5.88713V9.46568ZM13.8579 9.46568C13.8579 10.0669 13.439 10.5591 12.9267 10.5591C12.4145 10.5591 11.9955 10.0674 11.9955 9.46568V5.88713C11.9955 5.2859 12.4145 4.79367 12.9267 4.79367C13.439 4.79367 13.8579 5.2859 13.8579 5.88713V9.46568ZM9.53538 1.33488L10.1327 0.262923C10.1816 0.175427 10.1669 0.0732661 10.1009 0.0366056C10.0349 -5.4853e-05 9.94011 0.0410049 9.89172 0.128501L9.28071 1.22538C8.7067 1.00215 8.09585 0.888731 7.47995 0.891039C6.82984 0.891039 6.21492 1.01324 5.66648 1.23076L5.05254 0.12899C5.00366 0.0414937 4.90932 -5.4827e-05 4.84333 0.0370945C4.77734 0.0742437 4.76268 0.175915 4.81156 0.263412L5.41181 1.34074C4.16291 1.92731 3.32168 3.02859 3.32168 4.29069C3.32168 4.41875 3.33096 4.54536 3.34758 4.67H11.6128C11.6299 4.54536 11.6387 4.41924 11.6387 4.29069C11.6387 3.02468 10.7921 1.92047 9.53636 1.33536L9.53538 1.33488ZM5.59218 3.20603C5.54442 3.20603 5.49713 3.19662 5.45301 3.17834C5.40889 3.16007 5.3688 3.13328 5.33503 3.09951C5.30126 3.06574 5.27447 3.02565 5.25619 2.98153C5.23792 2.9374 5.22851 2.89011 5.22851 2.84235C5.22851 2.7946 5.23792 2.74731 5.25619 2.70318C5.27447 2.65906 5.30126 2.61897 5.33503 2.5852C5.3688 2.55143 5.40889 2.52464 5.45301 2.50637C5.49713 2.48809 5.54442 2.47868 5.59218 2.47868C5.68863 2.47868 5.78114 2.517 5.84934 2.5852C5.91754 2.6534 5.95585 2.7459 5.95585 2.84235C5.95585 2.93881 5.91754 3.03131 5.84934 3.09951C5.78114 3.16771 5.68863 3.20603 5.59218 3.20603ZM9.38727 3.20603C9.33952 3.20603 9.29223 3.19662 9.2481 3.17834C9.20398 3.16007 9.16389 3.13328 9.13012 3.09951C9.09635 3.06574 9.06956 3.02565 9.05129 2.98153C9.03301 2.9374 9.0236 2.89011 9.0236 2.84235C9.0236 2.7946 9.03301 2.74731 9.05129 2.70318C9.06956 2.65906 9.09635 2.61897 9.13012 2.5852C9.16389 2.55143 9.20398 2.52464 9.2481 2.50637C9.29223 2.48809 9.33952 2.47868 9.38727 2.47868C9.48373 2.47868 9.57623 2.517 9.64443 2.5852C9.71263 2.6534 9.75095 2.7459 9.75095 2.84235C9.75095 2.93881 9.71263 3.03131 9.64443 3.09951C9.57623 3.16771 9.48373 3.20603 9.38727 3.20603ZM3.3207 5.03123V11.1271H3.32412C3.36665 11.6418 3.8403 12.051 4.41416 12.051H10.5443C11.1177 12.051 11.5913 11.6418 11.6343 11.1271H11.6377V5.03123H3.32119H3.3207ZM6.8841 12.0207V13.9065C6.8841 14.5077 6.46519 14.9999 5.95292 14.9999C5.44065 14.9999 5.02223 14.5077 5.02223 13.9065V12.0221L6.8841 12.0207ZM9.98704 12.0197V13.9065C9.98704 14.5077 9.56813 14.9999 9.05586 14.9999C8.5436 14.9999 8.12469 14.5077 8.12469 13.9065V12.0197H9.98704Z" fill="#B0B0B0"/>
</svg>
