<svg width="13" height="15" viewBox="0 0 13 15" fill="none" xmlns="http://www.w3.org/2000/svg">
<g clip-path="url(#clip0_114_1797)">
<path d="M12.37 11.6896C12.1432 12.2136 11.8746 12.696 11.5635 13.1395C11.1395 13.7441 10.7923 14.1626 10.5247 14.395C10.1099 14.7765 9.66545 14.9719 9.18954 14.983C8.84788 14.983 8.43585 14.8858 7.95624 14.6885C7.47505 14.4922 7.03284 14.395 6.6285 14.395C6.20444 14.395 5.74964 14.4922 5.26317 14.6885C4.77597 14.8858 4.38348 14.9885 4.08339 14.9987C3.62702 15.0182 3.17213 14.8172 2.71807 14.395C2.42826 14.1423 2.06577 13.7089 1.63152 13.0951C1.16561 12.4395 0.782569 11.6794 0.482485 10.8127C0.161106 9.87665 0 8.97019 0 8.09263C0 7.08738 0.217216 6.22037 0.652295 5.49382C0.994229 4.91022 1.44912 4.44987 2.01846 4.11191C2.58779 3.77396 3.20296 3.60174 3.86544 3.59073C4.22793 3.59073 4.70328 3.70285 5.29401 3.92322C5.88306 4.14432 6.26129 4.25645 6.42712 4.25645C6.5511 4.25645 6.97127 4.12534 7.68356 3.86396C8.35715 3.62156 8.92565 3.52119 9.39138 3.56073C10.6534 3.66258 11.6015 4.16006 12.232 5.05633C11.1034 5.7402 10.545 6.69804 10.5562 7.9268C10.5663 8.8839 10.9136 9.68035 11.5959 10.3127C11.9052 10.6063 12.2506 10.8331 12.6348 10.9942C12.5515 11.2359 12.4635 11.4673 12.37 11.6896ZM9.47564 0.300085C9.47564 1.05026 9.20157 1.75069 8.65529 2.399C7.99605 3.16972 7.19867 3.61508 6.33397 3.5448C6.32296 3.4548 6.31657 3.36008 6.31657 3.26055C6.31657 2.54039 6.63008 1.76967 7.18682 1.1395C7.46477 0.82044 7.81828 0.555142 8.24697 0.34351C8.67474 0.135034 9.07935 0.0197431 9.4599 0C9.47101 0.100286 9.47564 0.200579 9.47564 0.300076V0.300085Z" fill="#B0B0B0"/>
</g>
<defs>
<clipPath id="clip0_114_1797">
<rect width="12.6348" height="15" fill="white"/>
</clipPath>
</defs>
</svg>
