<svg width="186" height="30" viewBox="0 0 186 30" fill="none" xmlns="http://www.w3.org/2000/svg">
<path d="M0.806 1.28H9.143C12.097 1.28 14.54 1.875 16.472 3.065C18.418 4.241 19.874 5.872 20.84 7.958C21.806 10.044 22.289 12.431 22.289 15.119C22.289 17.821 21.806 20.215 20.84 22.301C19.874 24.387 18.418 26.025 16.472 27.215C14.54 28.405 12.097 29 9.143 29H0.806V1.28ZM7.064 6.845V23.435H8.576C10.158 23.435 11.467 23.078 12.503 22.364C13.539 21.636 14.316 20.649 14.834 19.403C15.366 18.143 15.632 16.729 15.632 15.161C15.632 13.579 15.373 12.165 14.855 10.919C14.351 9.659 13.574 8.665 12.524 7.937C11.474 7.209 10.158 6.845 8.576 6.845H7.064ZM30.3112 21.734C30.3532 22.35 30.5492 22.896 30.8992 23.372C31.2492 23.848 31.7322 24.226 32.3482 24.506C32.9782 24.772 33.7202 24.905 34.5742 24.905C35.3862 24.905 36.1142 24.821 36.7582 24.653C37.4162 24.485 37.9832 24.275 38.4592 24.023C38.9492 23.771 39.3272 23.512 39.5932 23.246L42.0712 27.194C41.7212 27.572 41.2242 27.943 40.5802 28.307C39.9502 28.657 39.1172 28.944 38.0812 29.168C37.0452 29.392 35.7362 29.504 34.1542 29.504C32.2502 29.504 30.5562 29.147 29.0722 28.433C27.5882 27.719 26.4192 26.669 25.5652 25.283C24.7112 23.897 24.2842 22.203 24.2842 20.201C24.2842 18.521 24.6482 17.009 25.3762 15.665C26.1182 14.307 27.1892 13.236 28.5892 12.452C29.9892 11.654 31.6762 11.255 33.6502 11.255C35.5262 11.255 37.1502 11.598 38.5222 12.284C39.9082 12.97 40.9722 13.992 41.7142 15.35C42.4702 16.694 42.8482 18.374 42.8482 20.39C42.8482 20.502 42.8412 20.726 42.8272 21.062C42.8272 21.398 42.8132 21.622 42.7852 21.734H30.3112ZM36.8422 18.395C36.8282 17.947 36.7092 17.506 36.4852 17.072C36.2612 16.624 35.9252 16.26 35.4772 15.98C35.0292 15.686 34.4552 15.539 33.7552 15.539C33.0552 15.539 32.4602 15.679 31.9702 15.959C31.4942 16.225 31.1302 16.575 30.8782 17.009C30.6262 17.443 30.4862 17.905 30.4582 18.395H36.8422ZM69.0968 11.255C70.3988 11.255 71.5468 11.528 72.5408 12.074C73.5348 12.606 74.3118 13.432 74.8718 14.552C75.4458 15.672 75.7328 17.114 75.7328 18.878V29H69.4538V19.844C69.4538 18.64 69.2718 17.667 68.9078 16.925C68.5438 16.183 67.8228 15.812 66.7448 15.812C66.1008 15.812 65.5338 15.98 65.0438 16.316C64.5538 16.652 64.1758 17.121 63.9098 17.723C63.6438 18.311 63.5108 19.018 63.5108 19.844V29H57.6518V19.844C57.6518 18.64 57.4488 17.667 57.0428 16.925C56.6508 16.183 55.9508 15.812 54.9428 15.812C54.2988 15.812 53.7318 15.98 53.2418 16.316C52.7518 16.638 52.3738 17.1 52.1078 17.702C51.8558 18.29 51.7298 19.004 51.7298 19.844V29H45.3878V11.759H51.7298V14.216C51.8978 13.782 52.2618 13.341 52.8218 12.893C53.3958 12.431 54.1028 12.046 54.9428 11.738C55.7828 11.416 56.6718 11.255 57.6098 11.255C58.6318 11.255 59.4858 11.409 60.1718 11.717C60.8578 12.011 61.4178 12.41 61.8518 12.914C62.2998 13.418 62.6568 13.964 62.9228 14.552C63.1188 14.048 63.5038 13.544 64.0778 13.04C64.6658 12.522 65.3938 12.095 66.2618 11.759C67.1438 11.423 68.0888 11.255 69.0968 11.255ZM87.4493 29.504C85.5593 29.504 83.8793 29.119 82.4093 28.349C80.9533 27.565 79.8053 26.494 78.9653 25.136C78.1393 23.764 77.7263 22.196 77.7263 20.432C77.7263 18.668 78.1393 17.1 78.9653 15.728C79.8053 14.342 80.9533 13.25 82.4093 12.452C83.8793 11.654 85.5593 11.255 87.4493 11.255C89.3393 11.255 91.0053 11.654 92.4473 12.452C93.8893 13.25 95.0163 14.342 95.8283 15.728C96.6403 17.1 97.0463 18.668 97.0463 20.432C97.0463 22.196 96.6403 23.764 95.8283 25.136C95.0163 26.494 93.8893 27.565 92.4473 28.349C91.0053 29.119 89.3393 29.504 87.4493 29.504ZM87.4493 24.254C88.1773 24.254 88.8073 24.093 89.3393 23.771C89.8713 23.449 90.2843 22.994 90.5783 22.406C90.8723 21.818 91.0193 21.153 91.0193 20.411C91.0193 19.655 90.8723 18.983 90.5783 18.395C90.2843 17.807 89.8713 17.345 89.3393 17.009C88.8073 16.673 88.1773 16.505 87.4493 16.505C86.7213 16.505 86.0843 16.673 85.5383 17.009C85.0063 17.345 84.5863 17.807 84.2783 18.395C83.9843 18.983 83.8373 19.655 83.8373 20.411C83.8373 21.153 83.9843 21.818 84.2783 22.406C84.5863 22.994 85.0063 23.449 85.5383 23.771C86.0843 24.093 86.7213 24.254 87.4493 24.254ZM119.31 24.485C120.108 24.485 120.766 24.352 121.284 24.086C121.802 23.806 122.152 23.582 122.334 23.414L125.253 27.74C125.029 27.922 124.644 28.16 124.098 28.454C123.552 28.734 122.866 28.979 122.04 29.189C121.228 29.399 120.297 29.504 119.247 29.504C117.273 29.504 115.537 29.133 114.039 28.391C112.541 27.635 111.372 26.571 110.532 25.199C109.706 23.827 109.293 22.217 109.293 20.369C109.293 18.507 109.706 16.897 110.532 15.539C111.372 14.181 112.541 13.131 114.039 12.389C115.537 11.633 117.273 11.255 119.247 11.255C120.283 11.255 121.207 11.367 122.019 11.591C122.845 11.801 123.538 12.046 124.098 12.326C124.658 12.592 125.05 12.823 125.274 13.019L122.292 17.387C122.194 17.289 122.012 17.149 121.746 16.967C121.494 16.785 121.165 16.624 120.759 16.484C120.353 16.344 119.87 16.274 119.31 16.274C118.624 16.274 117.98 16.449 117.378 16.799C116.79 17.149 116.314 17.632 115.95 18.248C115.586 18.864 115.404 19.571 115.404 20.369C115.404 21.167 115.586 21.881 115.95 22.511C116.314 23.127 116.79 23.61 117.378 23.96C117.98 24.31 118.624 24.485 119.31 24.485ZM140.465 29V26.207C140.339 26.487 140.017 26.893 139.499 27.425C138.995 27.957 138.323 28.44 137.483 28.874C136.643 29.294 135.663 29.504 134.543 29.504C132.863 29.504 131.393 29.098 130.133 28.286C128.873 27.46 127.893 26.361 127.193 24.989C126.493 23.603 126.143 22.07 126.143 20.39C126.143 18.71 126.493 17.184 127.193 15.812C127.893 14.426 128.873 13.32 130.133 12.494C131.393 11.668 132.863 11.255 134.543 11.255C135.621 11.255 136.566 11.43 137.378 11.78C138.19 12.116 138.848 12.522 139.352 12.998C139.856 13.46 140.206 13.887 140.402 14.279V11.759H146.744V29H140.465ZM132.401 20.39C132.401 21.174 132.583 21.881 132.947 22.511C133.311 23.127 133.794 23.61 134.396 23.96C135.012 24.31 135.691 24.485 136.433 24.485C137.203 24.485 137.882 24.31 138.47 23.96C139.058 23.61 139.52 23.127 139.856 22.511C140.206 21.881 140.381 21.174 140.381 20.39C140.381 19.606 140.206 18.906 139.856 18.29C139.52 17.66 139.058 17.17 138.47 16.82C137.882 16.456 137.203 16.274 136.433 16.274C135.691 16.274 135.012 16.456 134.396 16.82C133.794 17.17 133.311 17.66 132.947 18.29C132.583 18.906 132.401 19.606 132.401 20.39ZM155.874 29H149.49V11.759H155.874V14.426H155.769C155.881 14.104 156.154 13.698 156.588 13.208C157.022 12.704 157.631 12.256 158.415 11.864C159.199 11.458 160.158 11.255 161.292 11.255C162.09 11.255 162.825 11.381 163.497 11.633C164.169 11.871 164.659 12.102 164.967 12.326L162.489 17.513C162.293 17.275 161.943 17.03 161.439 16.778C160.949 16.512 160.333 16.379 159.591 16.379C158.737 16.379 158.03 16.596 157.47 17.03C156.924 17.464 156.518 17.989 156.252 18.605C156 19.221 155.874 19.802 155.874 20.348V29ZM172.87 29.504C171.204 29.504 169.755 29.098 168.523 28.286C167.291 27.46 166.332 26.361 165.646 24.989C164.974 23.603 164.638 22.07 164.638 20.39C164.638 18.71 164.974 17.184 165.646 15.812C166.332 14.426 167.291 13.32 168.523 12.494C169.755 11.668 171.204 11.255 172.87 11.255C173.976 11.255 174.956 11.43 175.81 11.78C176.664 12.116 177.357 12.522 177.889 12.998C178.421 13.46 178.743 13.887 178.855 14.279V0.103999H185.239V29H178.918V26.207C178.652 26.725 178.218 27.243 177.616 27.761C177.014 28.265 176.307 28.678 175.495 29C174.683 29.336 173.808 29.504 172.87 29.504ZM174.823 24.485C175.593 24.485 176.279 24.31 176.881 23.96C177.497 23.61 177.98 23.127 178.33 22.511C178.68 21.881 178.855 21.174 178.855 20.39C178.855 19.606 178.68 18.906 178.33 18.29C177.98 17.66 177.497 17.17 176.881 16.82C176.279 16.456 175.593 16.274 174.823 16.274C174.081 16.274 173.409 16.456 172.807 16.82C172.219 17.17 171.75 17.66 171.4 18.29C171.064 18.906 170.896 19.606 170.896 20.39C170.896 21.174 171.064 21.881 171.4 22.511C171.75 23.127 172.219 23.61 172.807 23.96C173.409 24.31 174.081 24.485 174.823 24.485Z" fill="white" fill-opacity="0.9"/>
</svg>
