<svg width="143" height="118" viewBox="0 0 143 118" fill="none" xmlns="http://www.w3.org/2000/svg">
<path d="M71.9962 37.6017C75.6342 27.1693 78.9779 19.6259 82.0273 14.9715C83.2043 13.2595 84.4348 11.5475 85.7188 9.83552C87.0028 8.12354 88.3403 6.57206 89.7313 5.18108C90.4267 4.53909 91.1222 3.97734 91.8177 3.49585C92.8342 2.74686 94.5997 1.97112 97.1142 1.16863C99.2541 0.687132 101.635 0.339387 104.256 0.125389C106.931 -0.142108 109.366 0.0183904 111.559 0.606883C113.378 1.08838 115.09 2.21186 116.695 3.97734C118.835 6.38481 120.814 9.51453 122.633 13.3665C124.88 17.8069 127.154 23.6919 129.455 31.0213C131.808 38.3507 133.922 46.0278 135.794 54.0527C137.72 62.0776 139.272 69.9153 140.449 77.5657C141.679 85.1626 142.214 91.4755 142.054 96.5045C142.054 99.0724 141.786 101.801 141.251 104.69C140.77 107.525 139.566 109.772 137.64 111.431C135.446 113.357 130.418 115.015 122.553 116.406C114.742 117.744 110.248 115.844 109.071 110.709C108.804 109.318 108.724 107.9 108.831 106.455C108.938 104.957 108.991 103.513 108.991 102.122C109.312 92.813 108.59 82.5946 106.824 71.4668C105.059 60.2854 103.4 52.528 101.849 48.1946C100.297 43.8611 98.0772 45.3591 95.1882 52.6885C92.2992 60.0179 89.9185 68.3638 88.046 77.7262C86.227 87.0351 84.8896 93.134 84.0336 96.023C83.1776 98.8584 79.0581 100.303 71.6752 100.356C64.2923 100.356 60.1461 98.9387 59.2366 96.1032C58.3271 93.2143 56.6687 87.0083 54.2612 77.4855C51.8537 67.9091 49.5532 59.5899 47.3598 52.528C45.2198 45.4661 43.3473 44.1286 41.7423 48.5156C40.1374 52.849 38.4254 60.6064 36.6064 71.7878C34.7874 82.9691 34.0652 93.2143 34.4397 102.523C34.3862 103.914 34.4129 105.359 34.5199 106.857C34.6804 108.301 34.6002 109.719 34.2792 111.11C33.1022 116.246 28.4477 118.172 20.3158 116.888C12.1839 115.604 6.96776 113.999 4.66728 112.073C2.63431 110.468 1.35032 108.248 0.81533 105.412C0.280337 102.523 0.0128398 99.7947 0.0128398 97.2267C-0.0941589 92.1978 0.467584 85.8581 1.69807 78.2077C2.92855 70.5573 4.53354 62.7196 6.51301 54.6947C8.49249 46.6698 10.686 38.9927 13.0934 31.6633C15.5544 24.2803 17.9351 18.3419 20.2356 13.848C22.1081 9.99602 24.141 6.86631 26.3345 4.45884C27.993 2.63986 29.812 1.48962 31.7915 1.00813C34.0384 0.419636 36.5261 0.232388 39.2546 0.446385C42.0366 0.660383 44.5243 0.981379 46.7178 1.40937C49.3392 2.21186 51.1582 2.96085 52.1747 3.65635C52.9237 4.13784 53.6727 4.69958 54.4217 5.34158C55.8127 6.73256 57.1769 8.28404 58.5144 9.99602C59.8519 11.6545 61.1626 13.3397 62.4466 15.0517C65.6565 19.8132 68.8398 27.3298 71.9962 37.6017Z" fill="#C4C4C4" fill-opacity="0.25"/>
</svg>
