<svg width="78" height="21" viewBox="0 0 78 21" fill="none" xmlns="http://www.w3.org/2000/svg">
<path d="M12.6846 6.69882C13.3255 4.84027 13.9146 3.4964 14.4519 2.6672C14.6593 2.36221 14.8761 2.05721 15.1023 1.75222C15.3285 1.44723 15.5641 1.17083 15.8092 0.92302C15.9317 0.808648 16.0543 0.708572 16.1768 0.622793C16.3559 0.489359 16.667 0.351159 17.11 0.208193C17.487 0.122414 17.9064 0.0604624 18.3683 0.0223383C18.8396 -0.0253168 19.2684 0.00327629 19.6549 0.108118C19.9754 0.193897 20.277 0.394048 20.5598 0.708572C20.9368 1.13747 21.2856 1.69503 21.606 2.38127C22.0019 3.17234 22.4025 4.22076 22.8078 5.52651C23.2225 6.83226 23.5949 8.19996 23.9248 9.62961C24.2641 11.0593 24.5374 12.4556 24.7448 13.8185C24.9616 15.1719 25.0558 16.2966 25.0276 17.1925C25.0276 17.65 24.9804 18.1361 24.8862 18.6507C24.8014 19.1559 24.5893 19.5562 24.2499 19.8516C23.8635 20.1948 22.9775 20.4902 21.5919 20.738C20.2157 20.9763 19.424 20.638 19.2166 19.723C19.1695 19.4752 19.1553 19.2226 19.1742 18.9653C19.193 18.6984 19.2025 18.441 19.2025 18.1932C19.259 16.5348 19.1318 14.7144 18.8207 12.732C18.5097 10.74 18.2175 9.35798 17.9441 8.58597C17.6708 7.81395 17.2796 8.08082 16.7706 9.38657C16.2616 10.6923 15.8422 12.1792 15.5123 13.8471C15.1918 15.5055 14.9562 16.592 14.8054 17.1067C14.6546 17.6118 13.9288 17.8692 12.628 17.8787C11.3273 17.8787 10.5968 17.6261 10.4365 17.121C10.2763 16.6063 9.98411 15.5007 9.55995 13.8042C9.13579 12.0982 8.73049 10.6161 8.34403 9.35798C7.967 8.09988 7.6371 7.86161 7.35433 8.64315C7.07156 9.41516 6.76993 10.7972 6.44946 12.7891C6.12899 14.7811 6.00174 16.6063 6.06772 18.2647C6.05829 18.5125 6.06301 18.7699 6.08186 19.0367C6.11013 19.2941 6.096 19.5466 6.03944 19.7945C5.83208 20.7094 5.01204 21.0525 3.57933 20.8238C2.14662 20.5951 1.22761 20.3091 0.8223 19.966C0.464123 19.6801 0.237905 19.2845 0.143648 18.7794C0.0493908 18.2647 0.00226217 17.7786 0.00226217 17.3212C-0.0165893 16.4252 0.0823809 15.2958 0.299173 13.9329C0.515964 12.5699 0.798736 11.1736 1.14749 9.74399C1.49624 8.31433 1.8827 6.94663 2.30685 5.64088C2.74044 4.3256 3.15988 3.26765 3.56519 2.46705C3.89509 1.78081 4.25327 1.22325 4.63972 0.794352C4.93192 0.470297 5.25239 0.26538 5.60114 0.1796C5.99703 0.074759 6.43532 0.0414004 6.91603 0.0795245C7.40617 0.117649 7.84447 0.174835 8.23092 0.251083C8.69278 0.394048 9.01326 0.527483 9.19235 0.651386C9.32431 0.737165 9.45627 0.837241 9.58823 0.951613C9.8333 1.19942 10.0737 1.47582 10.3093 1.78081C10.5449 2.07627 10.7759 2.3765 11.0021 2.68149C11.5676 3.52976 12.1285 4.86887 12.6846 6.69882Z" fill="#454545"/>
<path d="M25.6838 12.732C26.2588 11.6073 26.8856 10.7162 27.5642 10.0585C27.8376 9.80117 28.0119 9.63914 28.0874 9.57243C29.1713 8.60979 30.4014 7.94739 31.7775 7.58521C32.9463 7.27068 34.0821 7.26592 35.1849 7.57091C35.7033 7.72341 36.2218 8.00457 36.7402 8.41441C37.2586 8.81471 37.6498 9.2579 37.9137 9.74399C38.1964 10.2968 38.3755 10.9925 38.4509 11.8313C38.5546 13.0703 38.4415 14.1854 38.1116 15.1767C37.9137 15.7771 37.6215 16.3633 37.235 16.9351C36.8486 17.4975 36.448 18.0026 36.0332 18.4506C35.4111 19.1178 34.7042 19.6848 33.9125 20.1519C33.1207 20.6189 32.2677 20.8953 31.3534 20.9811C30.4014 21.0478 29.5059 20.9382 28.667 20.6522C27.9978 20.4235 27.3804 20.109 26.8149 19.7087C26.2588 19.2988 25.8299 18.7746 25.5283 18.1361C25.2172 17.5165 25.0476 16.7969 25.0193 15.9773C24.9722 14.805 25.1937 13.7232 25.6838 12.732ZM29.3598 14.7192C29.3598 15.3196 29.6992 15.9439 30.3778 16.592C31.0565 17.2401 31.7445 17.3926 32.442 17.0495C32.8851 16.8303 33.1537 16.5253 33.2479 16.1345C33.3516 15.7342 33.3375 15.3196 33.2055 14.8907C32.9039 13.9186 32.1875 13.3324 31.0565 13.1323C29.9254 12.9321 29.3598 13.4611 29.3598 14.7192Z" fill="#454545"/>
<path d="M39.5879 12.732C40.1629 11.6073 40.7897 10.7162 41.4683 10.0585C41.7417 9.80117 41.916 9.63914 41.9914 9.57243C43.0754 8.60979 44.3055 7.94739 45.6816 7.58521C46.8504 7.27068 47.9862 7.26592 49.089 7.57091C49.6074 7.72341 50.1258 8.00457 50.6443 8.41441C51.1627 8.81471 51.5538 9.2579 51.8178 9.74399C52.1005 10.2968 52.2796 10.9925 52.355 11.8313C52.4587 13.0703 52.3456 14.1854 52.0157 15.1767C51.8178 15.7771 51.5256 16.3633 51.1391 16.9351C50.7527 17.4975 50.3521 18.0026 49.9373 18.4506C49.3152 19.1178 48.6083 19.6848 47.8165 20.1519C47.0248 20.6189 46.1718 20.8953 45.2575 20.9811C44.3055 21.0478 43.41 20.9382 42.5711 20.6522C41.9019 20.4235 41.2845 20.109 40.719 19.7087C40.1629 19.2988 39.734 18.7746 39.4324 18.1361C39.1213 17.5165 38.9516 16.7969 38.9234 15.9773C38.8762 14.805 39.0977 13.7232 39.5879 12.732ZM43.2639 14.7192C43.2639 15.3196 43.6032 15.9439 44.2819 16.592C44.9605 17.2401 45.6486 17.3926 46.3461 17.0495C46.7891 16.8303 47.0578 16.5253 47.152 16.1345C47.2557 15.7342 47.2416 15.3196 47.1096 14.8907C46.808 13.9186 46.0916 13.3324 44.9605 13.1323C43.8295 12.9321 43.2639 13.4611 43.2639 14.7192Z" fill="#454545"/>
<path d="M62.5831 17.2354C62.3757 16.6349 62.1542 16.6397 61.9186 17.2497C61.6829 17.8597 61.3766 18.4553 60.9996 19.0367C60.8299 19.2464 60.6649 19.4609 60.5047 19.6801C60.3445 19.8993 60.1748 20.0947 59.9957 20.2662C59.9015 20.3425 59.8119 20.414 59.7271 20.4807C59.5951 20.576 59.3642 20.6713 59.0343 20.7666C58.761 20.8333 58.4499 20.881 58.1012 20.9096C57.7524 20.9382 57.4366 20.9191 57.1539 20.8524C56.9277 20.7952 56.7061 20.657 56.4893 20.4378C56.2066 20.1328 55.9474 19.742 55.7117 19.2655C55.4195 18.7127 55.1179 17.9788 54.8069 17.0638C54.5052 16.1488 54.2272 15.191 53.9727 14.1902C53.7182 13.1799 53.5108 12.1982 53.3506 11.2451C53.1903 10.292 53.1149 9.50095 53.1244 8.8719C53.1244 8.55737 53.1574 8.21902 53.2233 7.85684C53.2893 7.49466 53.4496 7.2135 53.704 7.01335C53.9868 6.76554 54.6325 6.55586 55.641 6.3843C56.659 6.20321 57.2434 6.43195 57.3942 7.07053C57.4414 7.25162 57.4555 7.43271 57.4366 7.6138C57.4272 7.79489 57.4272 7.97598 57.4366 8.15707C57.3895 9.31986 57.4838 10.597 57.7194 11.9885C57.9645 13.3801 58.1907 14.2951 58.3981 14.7335C58.6054 15.1719 58.8929 15.1671 59.2605 14.7192C59.6281 14.2712 59.9109 13.4087 60.1088 12.1315C60.3728 10.3206 60.5566 9.23884 60.6602 8.88619C60.7733 8.52401 61.3106 8.33816 62.272 8.32863C63.2335 8.3191 63.7707 8.49542 63.8838 8.8576C64.0064 9.21025 64.209 10.2873 64.4918 12.0886C64.85 13.423 65.1704 14.2951 65.4532 14.7049C65.7454 15.1147 65.9905 15.1004 66.1884 14.662C66.3958 14.2236 66.6126 13.3038 66.8388 11.9028C67.065 10.5017 67.1546 9.21978 67.1074 8.05699C67.1169 7.8759 67.1121 7.69482 67.0933 7.51373C67.0744 7.33264 67.0839 7.15631 67.1216 6.98475C67.263 6.33664 67.8615 6.0936 68.9172 6.25563C69.9823 6.40813 70.6609 6.60351 70.9531 6.84179C71.2171 7.04194 71.382 7.3231 71.448 7.68528C71.5234 8.03793 71.5611 8.37152 71.5611 8.68604C71.5894 9.31509 71.5234 10.1109 71.3632 11.0736C71.2123 12.0267 71.0097 13.0084 70.7552 14.0187C70.5007 15.0194 70.2179 15.982 69.9069 16.9066C69.6052 17.8311 69.3036 18.5745 69.002 19.1368C68.7664 19.6134 68.5072 20.0041 68.2244 20.3091C68.0076 20.5379 67.7719 20.6856 67.5175 20.7523C67.2347 20.8286 66.9095 20.8524 66.5419 20.8238C66.1837 20.7952 65.8585 20.7571 65.5663 20.7094C65.227 20.6141 64.9961 20.5188 64.8735 20.4235C64.7699 20.3663 64.6709 20.2996 64.5766 20.2234C64.3881 20.0518 64.209 19.8612 64.0394 19.6515C63.8697 19.4418 63.7 19.2274 63.5304 19.0081C63.1156 18.4172 62.7999 17.8263 62.5831 17.2354Z" fill="#454545"/>
<path d="M72.387 14.662C72.1608 11.5358 72.5896 8.94338 73.6736 6.88468C74.0318 6.81796 74.4324 6.7989 74.8754 6.82749C75.3184 6.84655 75.7378 6.88944 76.1337 6.95616C76.4919 7.02288 76.7794 7.08483 76.9962 7.14202C77.0433 7.15155 77.1093 7.18014 77.1941 7.22779C77.2318 7.25639 77.2836 7.30404 77.3496 7.37076C77.3496 7.37076 77.4062 7.42318 77.5193 7.52802C77.5476 7.55661 77.5994 7.6138 77.6748 7.69958C77.7031 7.74724 77.7314 7.81872 77.7596 7.91403C77.7879 8.0284 77.8162 8.14277 77.8445 8.25715C77.8445 8.28574 77.8633 8.40011 77.901 8.60026C77.9199 8.7337 77.835 9.83453 77.6465 11.9028C77.4674 13.971 77.5806 16.368 77.9859 19.0939C77.967 19.3894 77.9246 19.6753 77.8586 19.9517C77.7926 20.2281 77.7267 20.4187 77.6607 20.5236C77.5476 20.6951 77.3025 20.819 76.9255 20.8953C76.7558 20.9334 76.5673 20.9572 76.3599 20.9668C76.1526 20.9668 75.9405 20.962 75.7237 20.9525C75.3372 20.9429 74.9178 20.9001 74.4653 20.8238C74.126 20.7761 73.8338 20.7142 73.5888 20.6379C73.5134 20.5998 73.4568 20.5712 73.4191 20.5522C73.3814 20.5331 73.3201 20.4855 73.2353 20.4092C73.1976 20.3806 73.1458 20.3282 73.0798 20.2519C73.0798 20.2615 73.0326 20.2043 72.9384 20.0804C72.9007 20.0518 72.8677 19.9803 72.8394 19.8659C72.8111 19.7897 72.7829 19.6753 72.7546 19.5228C72.7357 19.3989 72.6132 17.7786 72.387 14.662ZM75.4409 0.96591C76.1478 0.96591 76.7511 1.20419 77.2507 1.68074C77.7502 2.14776 78 2.71962 78 3.39632C78 4.06349 77.7502 4.63536 77.2507 5.11191C76.7511 5.58846 76.1478 5.82673 75.4409 5.82673C74.7434 5.82673 74.1449 5.58846 73.6453 5.11191C73.1458 4.63536 72.896 4.06349 72.896 3.39632C72.896 2.71962 73.1458 2.14776 73.6453 1.68074C74.1449 1.20419 74.7434 0.96591 75.4409 0.96591Z" fill="#454545"/>
</svg>
