<svg width="130" height="35" viewBox="0 0 130 35" fill="none" xmlns="http://www.w3.org/2000/svg">
<path d="M21.075 11.1647C22.14 8.06712 23.1187 5.82733 24.0114 4.44533C24.3559 3.93701 24.7161 3.42869 25.092 2.92037C25.4678 2.41204 25.8593 1.95138 26.2665 1.53837C26.4701 1.34775 26.6737 1.18095 26.8773 1.03799C27.1748 0.815598 27.6916 0.585265 28.4277 0.346989C29.0541 0.204024 29.751 0.100771 30.5184 0.0372306C31.3014 -0.0421947 32.0139 0.00546048 32.656 0.180196C33.1885 0.323161 33.6896 0.656747 34.1594 1.18095C34.7859 1.89578 35.3653 2.82506 35.8978 3.96878C36.5555 5.28724 37.2211 7.03459 37.8945 9.21084C38.5835 11.3871 39.2021 13.6666 39.7502 16.0494C40.314 18.4321 40.7682 20.7593 41.1127 23.0308C41.4729 25.2865 41.6295 27.1609 41.5825 28.6541C41.5825 29.4166 41.5042 30.2268 41.3476 31.0846C41.2067 31.9265 40.8543 32.5936 40.2905 33.0861C39.6485 33.6579 38.1764 34.1504 35.8743 34.5634C33.5878 34.9605 32.2723 34.3966 31.9278 32.8716C31.8495 32.4586 31.826 32.0377 31.8573 31.6088C31.8887 31.164 31.9043 30.7351 31.9043 30.3221C31.9983 27.5581 31.7869 24.524 31.2701 21.2199C30.7533 17.9 30.2678 15.5966 29.8136 14.3099C29.3595 13.0233 28.7096 13.468 27.8639 15.6443C27.0182 17.8205 26.3213 20.2986 25.7732 23.0785C25.2407 25.8425 24.8492 27.6534 24.5987 28.5112C24.3481 29.3531 23.1422 29.782 20.9811 29.7979C18.8199 29.7979 17.6062 29.3769 17.34 28.535C17.0738 27.6772 16.5883 25.8345 15.8836 23.007C15.1788 20.1636 14.5054 17.6935 13.8634 15.5966C13.2369 13.4998 12.6888 13.1027 12.219 14.4053C11.7492 15.6919 11.248 17.9953 10.7156 21.3152C10.1831 24.6352 9.9717 27.6772 10.0813 30.4412C10.0657 30.8542 10.0735 31.2831 10.1048 31.7279C10.1518 32.1568 10.1283 32.5777 10.0343 32.9908C9.68981 34.5157 8.32734 35.0876 5.94694 34.7063C3.56654 34.3251 2.03963 33.8485 1.36623 33.2767C0.771126 32.8001 0.395272 32.1409 0.238667 31.299C0.0820613 30.4412 0.00375853 29.6311 0.00375853 28.8686C-0.0275626 27.3754 0.136873 25.493 0.497066 23.2215C0.857259 20.9499 1.32708 18.6227 1.90652 16.24C2.48596 13.8572 3.12804 11.5777 3.83276 9.40146C4.55315 7.20933 5.25004 5.44609 5.92345 4.11174C6.47157 2.96802 7.06667 2.03875 7.70875 1.32392C8.19423 0.783828 8.72669 0.442299 9.30613 0.299334C9.96387 0.124598 10.6921 0.0690007 11.4908 0.132541C12.3051 0.196081 13.0333 0.291391 13.6754 0.418472C14.4428 0.656747 14.9753 0.879138 15.2728 1.08564C15.492 1.22861 15.7113 1.3954 15.9305 1.58602C16.3377 1.99903 16.7371 2.4597 17.1286 2.96802C17.5201 3.46046 17.9038 3.96084 18.2796 4.46916C19.2193 5.88293 20.1511 8.11478 21.075 11.1647Z" fill="white" fill-opacity="0.9"/>
<path d="M42.6728 21.2199C43.6281 19.3455 44.6696 17.8603 45.7971 16.7642C46.2513 16.3353 46.541 16.0652 46.6663 15.954C48.4672 14.3497 50.5109 13.2456 52.7974 12.642C54.7393 12.1178 56.6264 12.1099 58.4587 12.6182C59.32 12.8723 60.1813 13.341 61.0427 14.024C61.904 14.6912 62.5539 15.4298 62.9924 16.24C63.4622 17.1613 63.7598 18.3209 63.8851 19.7188C64.0573 21.7839 63.8694 23.6424 63.3213 25.2945C62.9924 26.2952 62.5069 27.2721 61.8648 28.2252C61.2228 29.1625 60.5572 30.0044 59.8681 30.751C58.8345 31.8629 57.66 32.8081 56.3445 33.5864C55.029 34.3648 53.6117 34.8255 52.0927 34.9684C50.5109 35.0796 49.0232 34.897 47.6294 34.4204C46.5175 34.0392 45.4917 33.515 44.5521 32.8478C43.6281 32.1647 42.9156 31.2911 42.4144 30.2268C41.8976 29.1942 41.6157 27.9949 41.5688 26.6288C41.4905 24.6749 41.8585 22.872 42.6728 21.2199ZM48.7805 24.532C48.7805 25.5327 49.3442 26.5732 50.4718 27.6534C51.5994 28.7336 52.7426 28.9877 53.9015 28.4159C54.6375 28.0505 55.0838 27.5422 55.2404 26.8909C55.4127 26.2237 55.3892 25.5327 55.17 24.8179C54.6688 23.1976 53.4786 22.2207 51.5994 21.8871C49.7201 21.5535 48.7805 22.4351 48.7805 24.532Z" fill="white" fill-opacity="0.9"/>
<path d="M65.774 21.2199C66.7293 19.3455 67.7708 17.8603 68.8983 16.7642C69.3525 16.3353 69.6422 16.0652 69.7675 15.954C71.5684 14.3497 73.6122 13.2456 75.8986 12.642C77.8405 12.1178 79.7276 12.1099 81.5599 12.6182C82.4212 12.8723 83.2825 13.341 84.1439 14.024C85.0052 14.6912 85.6551 15.4298 86.0936 16.24C86.5634 17.1613 86.861 18.3209 86.9863 19.7188C87.1585 21.7839 86.9706 23.6424 86.4225 25.2945C86.0936 26.2952 85.6081 27.2721 84.9661 28.2252C84.324 29.1625 83.6584 30.0044 82.9693 30.751C81.9357 31.8629 80.7612 32.8081 79.4457 33.5864C78.1302 34.3648 76.7129 34.8255 75.1939 34.9684C73.6122 35.0796 72.1244 34.897 70.7306 34.4204C69.6187 34.0392 68.5929 33.515 67.6533 32.8478C66.7293 32.1647 66.0168 31.2911 65.5156 30.2268C64.9988 29.1942 64.717 27.9949 64.67 26.6288C64.5917 24.6749 64.9597 22.872 65.774 21.2199ZM71.8817 24.532C71.8817 25.5327 72.4454 26.5732 73.573 27.6534C74.7006 28.7336 75.8438 28.9877 77.0027 28.4159C77.7387 28.0505 78.185 27.5422 78.3416 26.8909C78.5139 26.2237 78.4904 25.5327 78.2712 24.8179C77.77 23.1976 76.5798 22.2207 74.7006 21.8871C72.8213 21.5535 71.8817 22.4351 71.8817 24.532Z" fill="white" fill-opacity="0.9"/>
<path d="M103.98 28.7256C103.635 27.7249 103.267 27.7328 102.876 28.7495C102.484 29.7661 101.975 30.7589 101.349 31.7279C101.067 32.0774 100.793 32.4348 100.527 32.8001C100.26 33.1655 99.9786 33.4911 99.681 33.7771C99.5244 33.9041 99.3757 34.0233 99.2347 34.1345C99.0155 34.2933 98.6318 34.4522 98.0837 34.611C97.6295 34.7222 97.1127 34.8017 96.5333 34.8493C95.9538 34.897 95.4292 34.8652 94.9594 34.754C94.5835 34.6587 94.2155 34.4284 93.8553 34.063C93.3855 33.5547 92.9548 32.9034 92.5633 32.1091C92.0778 31.1878 91.5767 29.9647 91.0599 28.4397C90.5588 26.9147 90.0968 25.3183 89.6739 23.6504C89.2511 21.9665 88.9066 20.3304 88.6403 18.7419C88.3741 17.1534 88.2488 15.8349 88.2645 14.7865C88.2645 14.2623 88.3193 13.6984 88.4289 13.0947C88.5386 12.4911 88.8048 12.0225 89.2276 11.6889C89.6974 11.2759 90.7702 10.9264 92.4459 10.6405C94.1372 10.3387 95.1082 10.7199 95.3587 11.7842C95.437 12.086 95.4605 12.3879 95.4292 12.6897C95.4135 12.9915 95.4135 13.2933 95.4292 13.5951C95.3509 15.5331 95.5075 17.6617 95.899 19.9809C96.3062 22.3001 96.682 23.8251 97.0266 24.5558C97.3711 25.2865 97.8488 25.2786 98.4595 24.532C99.0703 23.7854 99.5401 22.3478 99.869 20.2192C100.307 17.201 100.613 15.3981 100.785 14.8103C100.973 14.2067 101.866 13.8969 103.463 13.881C105.06 13.8652 105.953 14.159 106.141 14.7627C106.345 15.3504 106.681 17.1454 107.151 20.1477C107.746 22.3716 108.279 23.8251 108.749 24.5081C109.234 25.1912 109.641 25.1674 109.97 24.4367C110.315 23.7059 110.675 22.173 111.051 19.8379C111.426 17.5028 111.575 15.3663 111.497 13.4283C111.513 13.1265 111.505 12.8247 111.473 12.5229C111.442 12.2211 111.458 11.9272 111.52 11.6413C111.755 10.5611 112.75 10.156 114.504 10.4261C116.273 10.6802 117.401 11.0059 117.886 11.403C118.325 11.7366 118.599 12.2052 118.709 12.8088C118.834 13.3966 118.897 13.9525 118.897 14.4767C118.944 15.5252 118.834 16.8516 118.568 18.4559C118.317 20.0444 117.98 21.6806 117.558 23.3644C117.135 25.0323 116.665 26.6367 116.148 28.1776C115.647 29.7184 115.146 30.9575 114.645 31.8947C114.253 32.6889 113.823 33.3402 113.353 33.8486C112.993 34.2298 112.601 34.476 112.178 34.5872C111.708 34.7143 111.168 34.754 110.557 34.7063C109.962 34.6587 109.422 34.5951 108.936 34.5157C108.373 34.3569 107.989 34.198 107.785 34.0392C107.613 33.9439 107.449 33.8327 107.292 33.7056C106.979 33.4197 106.681 33.102 106.399 32.7525C106.118 32.403 105.836 32.0456 105.554 31.6802C104.865 30.6954 104.34 29.7105 103.98 28.7256Z" fill="white" fill-opacity="0.9"/>
<path d="M120.269 24.4367C119.893 19.2264 120.605 14.9056 122.406 11.4745C123.001 11.3633 123.667 11.3315 124.403 11.3792C125.139 11.4109 125.836 11.4824 126.494 11.5936C127.089 11.7048 127.567 11.808 127.927 11.9034C128.005 11.9192 128.115 11.9669 128.256 12.0463C128.318 12.094 128.404 12.1734 128.514 12.2846C128.514 12.2846 128.608 12.372 128.796 12.5467C128.843 12.5944 128.929 12.6897 129.054 12.8326C129.101 12.9121 129.148 13.0312 129.195 13.19C129.242 13.3807 129.289 13.5713 129.336 13.7619C129.336 13.8096 129.368 14.0002 129.43 14.3338C129.461 14.5562 129.321 16.3909 129.007 19.8379C128.71 23.285 128.898 27.2801 129.571 31.8232C129.54 32.3156 129.469 32.7922 129.36 33.2529C129.25 33.7135 129.14 34.0312 129.031 34.206C128.843 34.4919 128.436 34.6984 127.809 34.8255C127.527 34.889 127.214 34.9287 126.87 34.9446C126.525 34.9446 126.173 34.9367 125.813 34.9208C125.17 34.9049 124.474 34.8334 123.722 34.7063C123.158 34.6269 122.673 34.5237 122.265 34.3966C122.14 34.333 122.046 34.2854 121.984 34.2536C121.921 34.2218 121.819 34.1424 121.678 34.0153C121.616 33.9677 121.529 33.8803 121.42 33.7532C121.42 33.7691 121.341 33.6738 121.185 33.4673C121.122 33.4197 121.067 33.3005 121.02 33.1099C120.973 32.9828 120.926 32.7922 120.879 32.538C120.848 32.3315 120.645 29.6311 120.269 24.4367ZM125.343 1.60985C126.517 1.60985 127.52 2.00698 128.35 2.80123C129.18 3.5796 129.595 4.5327 129.595 5.66054C129.595 6.77249 129.18 7.72559 128.35 8.51985C127.52 9.3141 126.517 9.71122 125.343 9.71122C124.184 9.71122 123.189 9.3141 122.359 8.51985C121.529 7.72559 121.114 6.77249 121.114 5.66054C121.114 4.5327 121.529 3.5796 122.359 2.80123C123.189 2.00698 124.184 1.60985 125.343 1.60985Z" fill="white" fill-opacity="0.9"/>
</svg>
