<svg width="22" height="22" viewBox="0 0 22 22" fill="none" xmlns="http://www.w3.org/2000/svg">
<path d="M1.09504 8.67852C2.03376 6.86646 3.05712 5.43062 4.16512 4.37102C4.61139 3.9564 4.89609 3.69534 5.0192 3.58784C6.78892 2.03683 8.79717 0.969557 11.0439 0.386009C12.9522 -0.120755 14.8065 -0.128434 16.607 0.362975C17.4534 0.608679 18.2998 1.0617 19.1462 1.72203C19.9926 2.367 20.6312 3.08108 21.0621 3.86426C21.5238 4.75494 21.8162 5.87596 21.9393 7.22734C22.1086 9.22368 21.9239 11.0204 21.3853 12.6175C21.0621 13.5849 20.5851 14.5294 19.9541 15.4507C19.3232 16.3568 18.6691 17.1707 17.992 17.8924C16.9764 18.9674 15.8222 19.8811 14.5295 20.6336C13.2369 21.386 11.8442 21.8314 10.3514 21.9696C8.79717 22.0771 7.33522 21.9005 5.96561 21.4398C4.873 21.0712 3.86503 20.5645 2.9417 19.9195C2.03375 19.2592 1.33356 18.4146 0.841118 17.3857C0.333285 16.3875 0.0562838 15.2281 0.0101171 13.9074C-0.0668273 12.0186 0.294813 10.2756 1.09504 8.67852Z" fill="white"/>
</svg>
